<svg x="0px" y="0px" viewBox="0 0 238 238" version="1.1"
    xmlns="http://www.w3.org/2000/svg"
    xmlns:xlink="http://www.w3.org/1999/xlink"
>
    <g>
        <path d="M 170.7 183.7 l -32.6 -35.5 c -19.1 5.3 -40.6 6.6 -62 2.7 c -54.1 -9.9 -86.8 -49.1 -72.9 -87.6 c 13.9 -38.5 69 -61.7 123.1 -51.9 c 7.6 1.4 14.7 3.3 21.3 5.8 l -6.5 12.2 c -5.3 -1.7 -10.9 -3.1 -16.9 -4.1 c -42.3 -6.8 -85.4 9.3 -96.2 36 c -10.8 26.7 14.7 54 57 60.8 c 41.5 6.7 83.9 -8.7 95.6 -34.6 l 13.2 22.5 l 0.1 0.1 c -4.6 7.4 -10.8 14.1 -18.3 19.9 l 27.9 25.2 c 15.6 14.9 -15.1 47.9 -32.8 28.6 Z m 9.6 -26.4 l -34.2 -30.6 c -36.6 14.2 -70.7 6.9 -98.3 -5.6 c 23.4 17.5 58.5 24.8 94.5 15 l 30.5 29.2 c 2 -3.3 4.6 -6.3 7.4 -7.9 Z" style="fill: #fff"/>
        <path d="M 42.3 90.3 l 27.5 0 l 16.4 -26.8 l 34 52.4 l 44.8 -68.6 l 34.5 58.9 l 37.9 0 l -29.2 -7.2 l -43.7 -98.9 l -43.7 82.5 l -33.1 -51.2 l -24.8 54.8 l -20.7 4.3 Z" style="fill: #fff"/>
    </g>
</svg>
